<svg enable-background="new 0 0 91 91" height="91px" id="Layer_1" version="1.1" viewBox="0 0 91 91" width="91px" xml:space="preserve" xmlns="http://www.w3.org/2000/svg" xmlns:xlink="http://www.w3.org/1999/xlink"><g><rect height="3.399" width="29.598" x="31.6" y="53.206"/><rect height="3.4" width="29.598" x="31.6" y="43.875"/><rect height="3.399" width="5.102" x="31.6" y="62.539"/><rect height="3.399" width="5.363" x="39.381" y="62.539"/><rect height="3.399" width="5.1" x="47.424" y="62.539"/><path d="M24.998,75.344H62.98c3.594,0,6.52-2.924,6.52-6.518V29.424c0-0.939-0.76-1.7-1.699-1.7H59.91v-5.1h-7.193   c-1.439-2.121-3.807-3.4-6.406-3.4c-2.598,0-4.965,1.279-6.404,3.4h-7.195v5.1h-7.713c-0.939,0-1.699,0.761-1.699,1.7v44.22   C23.299,74.583,24.059,75.344,24.998,75.344z M36.111,26.024h5.824l0.467-0.946c0.75-1.513,2.246-2.454,3.908-2.454   s3.16,0.94,3.908,2.454l0.469,0.946h5.824v6.8h-20.4V26.024z M26.697,31.125h6.014v5.1H59.91v-5.1H66.1v37.702   c0,1.719-1.398,3.118-3.119,3.118H26.697V31.125z"/></g></svg>